# xmcd CD database file
#
# Track frame offsets:
#	150
#	12005
#	29137
#	39195
#	49897
#	63281
#	74854
#	87987
#	99943
#	110941
#	122277
#	134745
#	146064
#	160556
#	171446
#	181556
#	196710
#	210314
#
# Disc length: 2957 seconds
#
# Revision: 0
# Processed by: cddbd v1.5.2PL0 Copyright (c) Steve Scherf et al.
# Submitted via: CDex 1.51
#
DISCID=f90b8b12
DTITLE=Various Artist - Timeless Country Melodies And Memories
DYEAR=2007
DGENRE=Country
TTITLE0=Gentle On My Mind-Floyd Cramer
TTITLE1=Crazy-Boots Randolph
TTITLE2=Take Me Home Country Roads-Pete Moore
TTITLE3=Make The World Go Away-Danny Davis
TTITLE4=Galveston-Alan Braden
TTITLE5=Sweet Dreams-Danny Davis
TTITLE6=South-Chet Atkins
TTITLE7=Blue Eyes Cryin' In The Rain-Floyd Cramer
TTITLE8=Always On My Mind-Billy Vaughn
TTITLE9=King Of The Road-Boots Randolph
TTITLE10=Born To Lose-Floyd Cramer
TTITLE11=By The Time I Get To Phoenix-Harry James
TTITLE12=I Will Always Love You-Floyd Cramer
TTITLE13=Behind Closed Doors-Paul Bateman
TTITLE14=Green, Green Grass Of Home-Danny Davis
TTITLE15=For The Good Times-Steve Chandler
TTITLE16=The Most Beautiful Girl-Pete Moore
TTITLE17=Send Me The Pillow You Dream On-Floyd Cramer
EXTD=YEAR: 2007
EXTT0=
EXTT1=
EXTT2=
EXTT3=
EXTT4=
EXTT5=
EXTT6=
EXTT7=
EXTT8=
EXTT9=
EXTT10=
EXTT11=
EXTT12=
EXTT13=
EXTT14=
EXTT15=
EXTT16=
EXTT17=
PLAYORDER=
